<mxfile host="app.diagrams.net" modified="2023-04-22T09:13:40.618Z" agent="Mozilla/5.0 (Windows NT 10.0; WOW64) AppleWebKit/537.36 (KHTML, like Gecko) Chrome/92.0.4515.131 Safari/537.36 SLBrowser/8.0.0.12022 SLBChan/103" etag="8OXSKOOSR1WtEOJNFi8F" version="21.2.1" type="github">
  <diagram id="C5RBs43oDa-KdzZeNtuy" name="Page-1">
    <mxGraphModel dx="1049" dy="539" grid="1" gridSize="10" guides="1" tooltips="1" connect="1" arrows="1" fold="1" page="1" pageScale="1" pageWidth="827" pageHeight="1169" math="0" shadow="0">
      <root>
        <mxCell id="WIyWlLk6GJQsqaUBKTNV-0" />
        <mxCell id="WIyWlLk6GJQsqaUBKTNV-1" parent="WIyWlLk6GJQsqaUBKTNV-0" />
        <mxCell id="W-3R4G8rXyijKn3_a2bj-2" style="edgeStyle=orthogonalEdgeStyle;rounded=0;orthogonalLoop=1;jettySize=auto;html=1;exitX=1;exitY=0.5;exitDx=0;exitDy=0;" edge="1" parent="WIyWlLk6GJQsqaUBKTNV-1" source="W-3R4G8rXyijKn3_a2bj-0" target="W-3R4G8rXyijKn3_a2bj-1">
          <mxGeometry relative="1" as="geometry" />
        </mxCell>
        <mxCell id="W-3R4G8rXyijKn3_a2bj-0" value="开始" style="rounded=1;whiteSpace=wrap;html=1;" vertex="1" parent="WIyWlLk6GJQsqaUBKTNV-1">
          <mxGeometry x="60" y="70" width="80" height="20" as="geometry" />
        </mxCell>
        <mxCell id="W-3R4G8rXyijKn3_a2bj-4" style="edgeStyle=orthogonalEdgeStyle;rounded=0;orthogonalLoop=1;jettySize=auto;html=1;exitX=1;exitY=0.5;exitDx=0;exitDy=0;entryX=0;entryY=0.5;entryDx=0;entryDy=0;" edge="1" parent="WIyWlLk6GJQsqaUBKTNV-1" source="W-3R4G8rXyijKn3_a2bj-1" target="W-3R4G8rXyijKn3_a2bj-3">
          <mxGeometry relative="1" as="geometry" />
        </mxCell>
        <mxCell id="W-3R4G8rXyijKn3_a2bj-1" value="输入三条边a,b,c" style="shape=parallelogram;perimeter=parallelogramPerimeter;whiteSpace=wrap;html=1;fixedSize=1;" vertex="1" parent="WIyWlLk6GJQsqaUBKTNV-1">
          <mxGeometry x="180" y="65" width="120" height="30" as="geometry" />
        </mxCell>
        <mxCell id="W-3R4G8rXyijKn3_a2bj-10" style="edgeStyle=orthogonalEdgeStyle;rounded=0;orthogonalLoop=1;jettySize=auto;html=1;exitX=0.5;exitY=1;exitDx=0;exitDy=0;entryX=0.5;entryY=0;entryDx=0;entryDy=0;" edge="1" parent="WIyWlLk6GJQsqaUBKTNV-1" source="W-3R4G8rXyijKn3_a2bj-3" target="W-3R4G8rXyijKn3_a2bj-7">
          <mxGeometry relative="1" as="geometry">
            <Array as="points">
              <mxPoint x="100" y="120" />
            </Array>
          </mxGeometry>
        </mxCell>
        <mxCell id="W-3R4G8rXyijKn3_a2bj-11" value="否(3)" style="edgeLabel;html=1;align=center;verticalAlign=middle;resizable=0;points=[];" vertex="1" connectable="0" parent="W-3R4G8rXyijKn3_a2bj-10">
          <mxGeometry x="0.2983" y="3" relative="1" as="geometry">
            <mxPoint as="offset" />
          </mxGeometry>
        </mxCell>
        <mxCell id="W-3R4G8rXyijKn3_a2bj-13" style="edgeStyle=orthogonalEdgeStyle;rounded=0;orthogonalLoop=1;jettySize=auto;html=1;exitX=1;exitY=0.5;exitDx=0;exitDy=0;entryX=0;entryY=0.5;entryDx=0;entryDy=0;" edge="1" parent="WIyWlLk6GJQsqaUBKTNV-1" source="W-3R4G8rXyijKn3_a2bj-3" target="W-3R4G8rXyijKn3_a2bj-12">
          <mxGeometry relative="1" as="geometry" />
        </mxCell>
        <mxCell id="W-3R4G8rXyijKn3_a2bj-3" value="a,b,c是否&lt;br&gt;都为整数" style="rhombus;whiteSpace=wrap;html=1;aspect=fixed;" vertex="1" parent="WIyWlLk6GJQsqaUBKTNV-1">
          <mxGeometry x="360" y="39.82" width="75" height="80.36" as="geometry" />
        </mxCell>
        <mxCell id="W-3R4G8rXyijKn3_a2bj-5" value="(1)" style="text;html=1;align=center;verticalAlign=middle;resizable=0;points=[];autosize=1;strokeColor=none;fillColor=none;" vertex="1" parent="WIyWlLk6GJQsqaUBKTNV-1">
          <mxGeometry x="140" y="78" width="40" height="30" as="geometry" />
        </mxCell>
        <mxCell id="W-3R4G8rXyijKn3_a2bj-6" value="(2)" style="text;html=1;align=center;verticalAlign=middle;resizable=0;points=[];autosize=1;strokeColor=none;fillColor=none;" vertex="1" parent="WIyWlLk6GJQsqaUBKTNV-1">
          <mxGeometry x="300" y="78" width="40" height="30" as="geometry" />
        </mxCell>
        <mxCell id="W-3R4G8rXyijKn3_a2bj-7" value="输出&lt;br&gt;&quot;&lt;span style=&quot;font-family: Consolas, &amp;quot;Courier New&amp;quot;, monospace; font-size: 14px; color: rgb(68, 140, 39);&quot;&gt;not a triangle!&lt;/span&gt;&lt;span style=&quot;font-family: Consolas, &amp;quot;Courier New&amp;quot;, monospace; font-size: 14px; color: rgb(119, 119, 119);&quot;&gt;&quot;&lt;/span&gt;" style="shape=parallelogram;perimeter=parallelogramPerimeter;whiteSpace=wrap;html=1;fixedSize=1;" vertex="1" parent="WIyWlLk6GJQsqaUBKTNV-1">
          <mxGeometry x="20" y="460" width="160" height="50" as="geometry" />
        </mxCell>
        <mxCell id="W-3R4G8rXyijKn3_a2bj-8" style="edgeStyle=orthogonalEdgeStyle;rounded=0;orthogonalLoop=1;jettySize=auto;html=1;exitX=0.5;exitY=1;exitDx=0;exitDy=0;" edge="1" parent="WIyWlLk6GJQsqaUBKTNV-1" source="W-3R4G8rXyijKn3_a2bj-3" target="W-3R4G8rXyijKn3_a2bj-3">
          <mxGeometry relative="1" as="geometry" />
        </mxCell>
        <mxCell id="W-3R4G8rXyijKn3_a2bj-15" style="edgeStyle=orthogonalEdgeStyle;rounded=0;orthogonalLoop=1;jettySize=auto;html=1;exitX=0.5;exitY=1;exitDx=0;exitDy=0;entryX=0.75;entryY=0;entryDx=0;entryDy=0;" edge="1" parent="WIyWlLk6GJQsqaUBKTNV-1" source="W-3R4G8rXyijKn3_a2bj-12" target="W-3R4G8rXyijKn3_a2bj-7">
          <mxGeometry relative="1" as="geometry">
            <Array as="points">
              <mxPoint x="140" y="140" />
            </Array>
          </mxGeometry>
        </mxCell>
        <mxCell id="W-3R4G8rXyijKn3_a2bj-16" value="否(5)" style="edgeLabel;html=1;align=center;verticalAlign=middle;resizable=0;points=[];" vertex="1" connectable="0" parent="W-3R4G8rXyijKn3_a2bj-15">
          <mxGeometry x="0.4153" y="1" relative="1" as="geometry">
            <mxPoint as="offset" />
          </mxGeometry>
        </mxCell>
        <mxCell id="W-3R4G8rXyijKn3_a2bj-18" style="edgeStyle=orthogonalEdgeStyle;rounded=0;orthogonalLoop=1;jettySize=auto;html=1;exitX=0.5;exitY=1;exitDx=0;exitDy=0;entryX=0.5;entryY=0;entryDx=0;entryDy=0;" edge="1" parent="WIyWlLk6GJQsqaUBKTNV-1" source="W-3R4G8rXyijKn3_a2bj-12" target="W-3R4G8rXyijKn3_a2bj-17">
          <mxGeometry relative="1" as="geometry" />
        </mxCell>
        <mxCell id="W-3R4G8rXyijKn3_a2bj-12" value="a,b,c是否在数据&lt;br&gt;范围内且满足任意两边和大于第三边" style="rhombus;whiteSpace=wrap;html=1;" vertex="1" parent="WIyWlLk6GJQsqaUBKTNV-1">
          <mxGeometry x="520" y="20" width="120" height="120" as="geometry" />
        </mxCell>
        <mxCell id="W-3R4G8rXyijKn3_a2bj-14" value="是(4)" style="text;html=1;align=center;verticalAlign=middle;resizable=0;points=[];autosize=1;strokeColor=none;fillColor=none;" vertex="1" parent="WIyWlLk6GJQsqaUBKTNV-1">
          <mxGeometry x="455" y="78" width="50" height="30" as="geometry" />
        </mxCell>
        <mxCell id="W-3R4G8rXyijKn3_a2bj-22" style="edgeStyle=orthogonalEdgeStyle;rounded=0;orthogonalLoop=1;jettySize=auto;html=1;exitX=0;exitY=0.5;exitDx=0;exitDy=0;entryX=0.5;entryY=0;entryDx=0;entryDy=0;" edge="1" parent="WIyWlLk6GJQsqaUBKTNV-1" source="W-3R4G8rXyijKn3_a2bj-17" target="W-3R4G8rXyijKn3_a2bj-21">
          <mxGeometry relative="1" as="geometry" />
        </mxCell>
        <mxCell id="W-3R4G8rXyijKn3_a2bj-23" value="是(8)" style="edgeLabel;html=1;align=center;verticalAlign=middle;resizable=0;points=[];" vertex="1" connectable="0" parent="W-3R4G8rXyijKn3_a2bj-22">
          <mxGeometry x="-0.2208" relative="1" as="geometry">
            <mxPoint as="offset" />
          </mxGeometry>
        </mxCell>
        <mxCell id="W-3R4G8rXyijKn3_a2bj-24" style="edgeStyle=orthogonalEdgeStyle;rounded=0;orthogonalLoop=1;jettySize=auto;html=1;exitX=0.5;exitY=1;exitDx=0;exitDy=0;entryX=0.5;entryY=0;entryDx=0;entryDy=0;" edge="1" parent="WIyWlLk6GJQsqaUBKTNV-1" source="W-3R4G8rXyijKn3_a2bj-17" target="W-3R4G8rXyijKn3_a2bj-20">
          <mxGeometry relative="1" as="geometry" />
        </mxCell>
        <mxCell id="W-3R4G8rXyijKn3_a2bj-17" value="是否三边相等" style="rhombus;whiteSpace=wrap;html=1;" vertex="1" parent="WIyWlLk6GJQsqaUBKTNV-1">
          <mxGeometry x="540" y="190" width="80" height="80" as="geometry" />
        </mxCell>
        <mxCell id="W-3R4G8rXyijKn3_a2bj-19" value="是(6)" style="text;html=1;align=center;verticalAlign=middle;resizable=0;points=[];autosize=1;strokeColor=none;fillColor=none;" vertex="1" parent="WIyWlLk6GJQsqaUBKTNV-1">
          <mxGeometry x="570" y="148" width="50" height="30" as="geometry" />
        </mxCell>
        <mxCell id="W-3R4G8rXyijKn3_a2bj-27" style="edgeStyle=orthogonalEdgeStyle;rounded=0;orthogonalLoop=1;jettySize=auto;html=1;exitX=0;exitY=0.5;exitDx=0;exitDy=0;" edge="1" parent="WIyWlLk6GJQsqaUBKTNV-1" source="W-3R4G8rXyijKn3_a2bj-20" target="W-3R4G8rXyijKn3_a2bj-26">
          <mxGeometry relative="1" as="geometry" />
        </mxCell>
        <mxCell id="W-3R4G8rXyijKn3_a2bj-30" style="edgeStyle=orthogonalEdgeStyle;rounded=0;orthogonalLoop=1;jettySize=auto;html=1;exitX=1;exitY=0.5;exitDx=0;exitDy=0;entryX=0.5;entryY=0;entryDx=0;entryDy=0;" edge="1" parent="WIyWlLk6GJQsqaUBKTNV-1" source="W-3R4G8rXyijKn3_a2bj-20" target="W-3R4G8rXyijKn3_a2bj-29">
          <mxGeometry relative="1" as="geometry" />
        </mxCell>
        <mxCell id="W-3R4G8rXyijKn3_a2bj-20" value="是否有&lt;br&gt;两边相等" style="rhombus;whiteSpace=wrap;html=1;" vertex="1" parent="WIyWlLk6GJQsqaUBKTNV-1">
          <mxGeometry x="540" y="310" width="80" height="80" as="geometry" />
        </mxCell>
        <mxCell id="W-3R4G8rXyijKn3_a2bj-21" value="输出&lt;br&gt;&quot;&lt;span style=&quot;font-family: Consolas, &amp;quot;Courier New&amp;quot;, monospace; font-size: 14px; color: rgb(68, 140, 39);&quot;&gt;equilateral triangle!&lt;/span&gt;&lt;span style=&quot;font-family: Consolas, &amp;quot;Courier New&amp;quot;, monospace; font-size: 14px; color: rgb(119, 119, 119);&quot;&gt;&quot;&lt;/span&gt;" style="shape=parallelogram;perimeter=parallelogramPerimeter;whiteSpace=wrap;html=1;fixedSize=1;" vertex="1" parent="WIyWlLk6GJQsqaUBKTNV-1">
          <mxGeometry x="190" y="460" width="200" height="50" as="geometry" />
        </mxCell>
        <mxCell id="W-3R4G8rXyijKn3_a2bj-25" value="否(7)" style="text;html=1;align=center;verticalAlign=middle;resizable=0;points=[];autosize=1;strokeColor=none;fillColor=none;" vertex="1" parent="WIyWlLk6GJQsqaUBKTNV-1">
          <mxGeometry x="570" y="280" width="50" height="30" as="geometry" />
        </mxCell>
        <mxCell id="W-3R4G8rXyijKn3_a2bj-26" value="输出&lt;br&gt;&lt;div style=&quot;color: rgb(51, 51, 51); font-family: Consolas, &amp;quot;Courier New&amp;quot;, monospace; font-size: 14px; line-height: 19px;&quot;&gt;&quot;&lt;span style=&quot;color: rgb(68, 140, 39);&quot;&gt;isosceles triangle!&lt;/span&gt;&lt;span style=&quot;color: rgb(119, 119, 119);&quot;&gt;&quot;&lt;/span&gt;&lt;/div&gt;" style="shape=parallelogram;perimeter=parallelogramPerimeter;whiteSpace=wrap;html=1;fixedSize=1;" vertex="1" parent="WIyWlLk6GJQsqaUBKTNV-1">
          <mxGeometry x="385" y="460" width="185" height="50" as="geometry" />
        </mxCell>
        <mxCell id="W-3R4G8rXyijKn3_a2bj-28" value="是(10)" style="text;html=1;align=center;verticalAlign=middle;resizable=0;points=[];autosize=1;strokeColor=none;fillColor=none;" vertex="1" parent="WIyWlLk6GJQsqaUBKTNV-1">
          <mxGeometry x="430" y="378" width="60" height="30" as="geometry" />
        </mxCell>
        <mxCell id="W-3R4G8rXyijKn3_a2bj-29" value="输出&lt;br&gt;&lt;div style=&quot;color: rgb(51, 51, 51); font-family: Consolas, &amp;quot;Courier New&amp;quot;, monospace; font-size: 14px; line-height: 19px;&quot;&gt;&quot;&lt;span style=&quot;color: rgb(68, 140, 39);&quot;&gt;regular triangle!&lt;/span&gt;&lt;span style=&quot;color: rgb(119, 119, 119);&quot;&gt;&quot;&lt;/span&gt;&lt;/div&gt;" style="shape=parallelogram;perimeter=parallelogramPerimeter;whiteSpace=wrap;html=1;fixedSize=1;" vertex="1" parent="WIyWlLk6GJQsqaUBKTNV-1">
          <mxGeometry x="610" y="460" width="170" height="50" as="geometry" />
        </mxCell>
        <mxCell id="W-3R4G8rXyijKn3_a2bj-31" value="否(9)" style="text;html=1;align=center;verticalAlign=middle;resizable=0;points=[];autosize=1;strokeColor=none;fillColor=none;" vertex="1" parent="WIyWlLk6GJQsqaUBKTNV-1">
          <mxGeometry x="645" y="328" width="50" height="30" as="geometry" />
        </mxCell>
      </root>
    </mxGraphModel>
  </diagram>
</mxfile>
